<?xml version="1.0" encoding="iso-8859-1"?>
<!-- Generator: Adobe Illustrator 19.0.0, SVG Export Plug-In . SVG Version: 6.00 Build 0)  -->
<svg version="1.1" id="Capa_1" xmlns="http://www.w3.org/2000/svg" xmlns:xlink="http://www.w3.org/1999/xlink" x="0px" y="0px"
	 viewBox="0 0 512 512" style="enable-background:new 0 0 512 512;" xml:space="preserve">
<circle style="fill:#FFBF5D;" cx="256" cy="256" r="256"/>
<path style="fill:#E1E6E9;" d="M430.4,214.4c-4-18.4-11.2-36-21.6-52L436,124l-48-48l-38.4,27.2c-16-10.4-33.6-17.6-52-21.6l-8-46.4
	h-68l-8,46.4c-18.4,4-36,11.2-52,21.6L123.2,76l-48,48l27.2,38.4c-10.4,16-17.6,33.6-21.6,52l-46.4,8v68l0,0l0,0l46.4,8
	c4,18.4,11.2,36,21.6,52l-27.2,38.4l48,48l38.4-27.2c16,10.4,33.6,17.6,52,21.6l8,46.4h68l8-46.4c18.4-4,36-11.2,52-21.6l38.4,27.2
	l48-48l-27.2-38.4c10.4-16,17.6-33.6,21.6-52l46.4-8l0,0v-68l0,0L430.4,214.4z"/>
<path style="fill:#193651;" d="M290.4,484.8h-68c-4,0-7.2-3.2-8-6.4l-6.4-40.8c-16-4-30.4-10.4-44.8-18.4l-33.6,24
	c-3.2,2.4-7.2,1.6-10.4-0.8l-48-48c-2.4-2.4-3.2-7.2-0.8-10.4l24-33.6C86.4,336,80,321.6,76,305.6l-40.8-6.4c-4-0.8-6.4-4-6.4-8v-68
	c0-4,3.2-7.2,6.4-8l40.8-6.4c4-16,10.4-30.4,18.4-44.8l-24-33.6c-2.4-3.2-1.6-7.2,0.8-10.4l48-48c2.4-2.4,7.2-3.2,10.4-0.8l33.6,24
	c14.4-8,28.8-14.4,44.8-18.4l6.4-40.8c0.8-4,4-6.4,8-6.4h68c4,0,7.2,3.2,8,6.4l6.4,40.8c16,4,30.4,10.4,44.8,18.4l33.6-24
	c3.2-2.4,7.2-1.6,10.4,0.8l48,48c2.4,2.4,3.2,7.2,0.8,10.4l-24,33.6c8,14.4,14.4,28.8,18.4,44.8l40.8,6.4c4,0.8,6.4,4,6.4,8v68
	c0,4-3.2,7.2-6.4,8l-40.8,6.4c-4,16-10.4,30.4-18.4,44.8l24,33.6c2.4,3.2,1.6,7.2-0.8,10.4l-48,48c-2.4,2.4-7.2,3.2-10.4,0.8
	l-33.6-24c-14.4,8-28.8,14.4-44.8,18.4l-6.4,40.8C297.6,481.6,294.4,484.8,290.4,484.8z M228.8,468.8h54.4l6.4-39.2
	c0.8-3.2,3.2-5.6,6.4-6.4c17.6-4,34.4-11.2,49.6-20.8c2.4-1.6,6.4-1.6,8.8,0l32.8,23.2l38.4-38.4l-23.2-32.8c-1.6-2.4-1.6-6.4,0-8.8
	c9.6-15.2,16.8-32,20.8-49.6c0.8-3.2,3.2-5.6,6.4-6.4l39.2-6.4V228l-39.2-6.4c-3.2-0.8-5.6-3.2-6.4-6.4c-4-17.6-11.2-34.4-20.8-49.6
	c-1.6-2.4-1.6-6.4,0-8.8l23.2-32.8l-38.4-38.4l-32.8,23.2c-2.4,1.6-6.4,1.6-8.8,0C330.4,99.2,313.6,92,296,88
	c-3.2-0.8-5.6-3.2-6.4-6.4l-6.4-39.2h-54.4l-6.4,39.2c-0.8,3.2-3.2,5.6-6.4,6.4c-17.6,4-34.4,11.2-49.6,20.8c-2.4,1.6-6.4,1.6-8.8,0
	l-32.8-23.2L86.4,124l23.2,32.8c1.6,2.4,1.6,6.4,0,8.8c-9.6,15.2-16.8,32-20.8,49.6c-0.8,3.2-3.2,5.6-6.4,6.4L43.2,228v55.2
	l39.2,6.4c3.2,0.8,5.6,3.2,6.4,6.4c4,17.6,11.2,34.4,20.8,49.6c1.6,2.4,1.6,6.4,0,8.8l-23.2,32.8l38.4,38.4l32.8-23.2
	c2.4-1.6,6.4-1.6,8.8,0c15.2,9.6,32,16.8,49.6,20.8c3.2,0.8,5.6,3.2,6.4,6.4L228.8,468.8z"/>
<path style="fill:#FFFFFF;" d="M256,128.8c-70.4,0-127.2,56.8-127.2,127.2l0,0c0,70.4,56.8,127.2,127.2,127.2S383.2,326.4,383.2,256
	l0,0C383.2,185.6,326.4,128.8,256,128.8z"/>
<path style="fill:#193651;" d="M256,391.2c-74.4,0-135.2-60.8-135.2-135.2S181.6,120.8,256,120.8S391.2,181.6,391.2,256
	S330.4,391.2,256,391.2z M256,136.8c-65.6,0-119.2,53.6-119.2,119.2S190.4,375.2,256,375.2S375.2,321.6,375.2,256
	S321.6,136.8,256,136.8z"/>
<g>
	<path style="fill:#27A2DE;" d="M196,231.2h-12.8v-13.6l-31.2,20l30.4,20V244h12.8c9.6,0,17.6,8,17.6,17.6v80h12.8v-80
		C226.4,244.8,212.8,231.2,196,231.2z"/>
	<path style="fill:#27A2DE;" d="M316.8,231.2h12.8v-13.6l30.4,20l-30.4,20V244h-12.8c-9.6,0-17.6,8-17.6,17.6v80h-12.8v-80
		C285.6,244.8,299.2,231.2,316.8,231.2z"/>
</g>
<g>
	<polygon style="fill:#F15F50;" points="249.6,341.6 262.4,341.6 262.4,206.4 276,206.4 256,175.2 236,206.4 249.6,206.4 	"/>
</g>
<rect x="426.4" y="248" style="fill:#193651;" width="14.4" height="16"/>
<rect x="71.2" y="248" style="fill:#193651;" width="14.4" height="16"/>
<rect x="373.675" y="374.22" transform="matrix(-0.7072 0.707 -0.707 -0.7072 921.2644 381.3167)" style="fill:#193651;" width="16" height="14.4"/>
<rect x="122.332" y="123.386" transform="matrix(-0.7072 0.707 -0.707 -0.7072 314.8283 130.7921)" style="fill:#193651;" width="16" height="14.4"/>
<rect x="248" y="426.4" style="fill:#193651;" width="16" height="14.4"/>
<rect x="248" y="71.2" style="fill:#193651;" width="16" height="14.4"/>
<rect x="123.363" y="373.712" transform="matrix(-0.7071 0.7071 -0.7071 -0.7071 492.7961 559.3002)" style="fill:#193651;" width="14.4" height="16"/>
<rect x="374.211" y="122.369" transform="matrix(-0.7071 0.7071 -0.7071 -0.7071 743.2941 -47.1455)" style="fill:#193651;" width="14.4" height="16"/>
<g>
</g>
<g>
</g>
<g>
</g>
<g>
</g>
<g>
</g>
<g>
</g>
<g>
</g>
<g>
</g>
<g>
</g>
<g>
</g>
<g>
</g>
<g>
</g>
<g>
</g>
<g>
</g>
<g>
</g>
</svg>
