<?xml version="1.0" encoding="iso-8859-1"?>
<!-- Generator: Adobe Illustrator 19.0.0, SVG Export Plug-In . SVG Version: 6.00 Build 0)  -->
<svg version="1.1" id="Layer_1" xmlns="http://www.w3.org/2000/svg" xmlns:xlink="http://www.w3.org/1999/xlink" x="0px" y="0px"
	 viewBox="0 0 480 480" style="enable-background:new 0 0 480 480;" xml:space="preserve">
<path style="fill:#FF8A5B;" d="M440,40h-64v40h4c15.464,0,28,12.536,28,28s-12.536,28-28,28h-40c-15.464,0-28-12.536-28-28
	s12.536-28,28-28h4V40H136v40h4c15.464,0,28,12.536,28,28s-12.536,28-28,28h-40c-15.464,0-28-12.536-28-28s12.536-28,28-28h4V40H40
	C22.328,40,8,54.328,8,72v96h464V72C472,54.328,457.672,40,440,40z"/>
<path style="fill:#FCEADE;" d="M120,104c-8.84,0-16-7.16-16-16v-8h-4c-15.464,0-28,12.536-28,28s12.536,28,28,28h40
	c15.464,0,28-12.536,28-28s-12.536-28-28-28h-4v8C136,96.84,128.84,104,120,104z"/>
<path style="fill:#21BABD;" d="M8,440c0,17.672,14.328,32,32,32h400c17.672,0,32-14.328,32-32V168H8V440z M432,416l-48,8l-8-8H256
	v24h-32l-16-16l-16,16H48v-80h143l17,16l15-16h33v24h120l8-8l48,8V416z M296,248l48-48h48l32,40h-56l-24,32l24,32h56l-32,40h-48
	l-48-48H64c-13.256,0-24-10.744-24-24s10.744-24,24-24H296z"/>
<path style="fill:#FCEADE;" d="M360,104c-8.84,0-16-7.16-16-16v-8h-4c-15.464,0-28,12.536-28,28s12.536,28,28,28h40
	c15.464,0,28-12.536,28-28s-12.536-28-28-28h-4v8C376,96.84,368.84,104,360,104z"/>
<g>
	<path style="fill:#21BABD;" d="M104,88c0,8.84,7.16,16,16,16s16-7.16,16-16v-8V40V24c0-8.84-7.16-16-16-16s-16,7.16-16,16v16v40V88
		z"/>
	<path style="fill:#21BABD;" d="M344,88c0,8.84,7.16,16,16,16s16-7.16,16-16v-8V40V24c0-8.84-7.16-16-16-16s-16,7.16-16,16v16v40V88
		z"/>
</g>
<polygon style="fill:#FCEADE;" points="376,384 256,384 256,416 376,416 384,424 432,416 432,384 384,376 "/>
<polygon style="fill:#FF8A5B;" points="256,360 223,360 208,376 191,360 48,360 48,440 192,440 208,424 224,440 256,440 256,416 
	256,384 "/>
<path style="fill:#FCEADE;" d="M40,272c0,13.256,10.744,24,24,24h232l48,48h48l32-40h-56l-24-32l24-32h56l-32-40h-48l-48,48H64
	C50.744,248,40,258.744,40,272z"/>
<g>
	<path style="fill:#2B2D42;" d="M440,32h-56v-8c0-13.232-10.768-24-24-24s-24,10.768-24,24v8H144v-8c0-13.232-10.768-24-24-24
		S96,10.768,96,24v8H40C17.944,32,0,49.944,0,72v368c0,22.056,17.944,40,40,40h400c22.056,0,40-17.944,40-40V72
		C480,49.944,462.056,32,440,32z M336.04,88.4c0.224,13.048,10.864,23.6,23.96,23.6s23.736-10.552,23.96-23.6
		C393.096,90.24,400,98.328,400,108c0,11.032-8.968,20-20,20h-40c-11.032,0-20-8.968-20-20C320,98.328,326.904,90.24,336.04,88.4z
		 M352,24c0-4.416,3.584-8,8-8s8,3.584,8,8v64c0,4.416-3.584,8-8,8s-8-3.584-8-8V24z M96.04,88.4
		C96.264,101.448,106.904,112,120,112s23.736-10.552,23.96-23.6C153.096,90.24,160,98.328,160,108c0,11.032-8.968,20-20,20h-40
		c-11.032,0-20-8.968-20-20C80,98.328,86.904,90.24,96.04,88.4z M112,24c0-4.416,3.584-8,8-8s8,3.584,8,8v64c0,4.416-3.584,8-8,8
		s-8-3.584-8-8V24z M40,48h56v24.408C78.048,74.424,64,89.52,64,108c0,19.848,16.152,36,36,36h40c19.848,0,36-16.152,36-36
		c0-18.48-14.048-33.576-32-35.592V48h192v24.408C318.048,74.424,304,89.52,304,108c0,19.848,16.152,36,36,36h40
		c19.848,0,36-16.152,36-36c0-18.48-14.048-33.576-32-35.592V48h56c13.232,0,24,10.768,24,24v88H16V72C16,58.768,26.768,48,40,48z
		 M440,464H40c-13.232,0-24-10.768-24-24V176h448v264C464,453.232,453.232,464,440,464z"/>
	<rect x="96" y="192" style="fill:#2B2D42;" width="16" height="16"/>
	<rect x="64" y="192" style="fill:#2B2D42;" width="16" height="16"/>
	<rect x="32" y="192" style="fill:#2B2D42;" width="16" height="16"/>
	<path style="fill:#2B2D42;" d="M433.312,376.112l-48-8c-2.528-0.408-5.144,0.408-6.968,2.232L372.688,376H264v-16
		c0-4.424-3.576-8-8-8h-33c-2.208,0-4.32,0.912-5.832,2.528l-9.512,10.152l-11.168-10.504C195,352.784,193.04,352,191,352H48
		c-4.424,0-8,3.576-8,8v80c0,4.424,3.576,8,8,8h144c2.128,0,4.16-0.84,5.656-2.344L208,435.312l10.344,10.344
		C219.84,447.16,221.872,448,224,448h32c4.424,0,8-3.576,8-8v-16h108.688l5.656,5.656c1.512,1.512,3.552,2.344,5.656,2.344
		c0.44,0,0.872-0.04,1.312-0.112l48-8c3.856-0.64,6.688-3.976,6.688-7.888v-32C440,380.088,437.168,376.752,433.312,376.112z
		 M248,432h-20.688l-13.656-13.656c-3.128-3.128-8.184-3.128-11.312,0L188.688,432H56v-64h131.832l14.688,13.832
		c1.544,1.456,3.664,2.344,5.736,2.168c2.128-0.064,4.136-0.968,5.584-2.52L226.472,368H248v16v32V432z M424,409.224l-37.256,6.2
		l-5.088-5.088C380.16,408.84,378.128,408,376,408H264v-16h112c2.128,0,4.16-0.84,5.656-2.344l5.088-5.088L424,390.776V409.224z"/>
	<path style="fill:#2B2D42;" d="M64,304h228.688l45.656,45.656C339.84,351.16,341.872,352,344,352h48c2.432,0,4.728-1.104,6.248-3
		l32-40c1.92-2.408,2.288-5.696,0.96-8.472C429.872,297.768,427.08,296,424,296h-52l-18-24l18-24h52c3.08,0,5.872-1.768,7.208-4.528
		c1.328-2.776,0.96-6.064-0.96-8.472l-32-40c-1.52-1.896-3.816-3-6.248-3h-48c-2.128,0-4.16,0.84-5.656,2.344L292.688,240H64
		c-17.648,0-32,14.352-32,32S46.352,304,64,304z M64,256h232c2.128,0,4.16-0.84,5.656-2.344L347.312,208h40.84l19.192,24H368
		c-2.512,0-4.888,1.184-6.4,3.2l-24,32c-2.136,2.84-2.136,6.752,0,9.592l24,32c1.504,2.016,3.88,3.2,6.4,3.2h39.352l-19.192,24
		h-40.84l-45.656-45.656C300.16,288.84,298.128,288,296,288H64c-8.824,0-16-7.176-16-16S55.176,256,64,256z"/>
	<rect x="72" y="384" style="fill:#2B2D42;" width="56" height="16"/>
	<rect x="144" y="384" style="fill:#2B2D42;" width="16" height="16"/>
</g>
<g>
</g>
<g>
</g>
<g>
</g>
<g>
</g>
<g>
</g>
<g>
</g>
<g>
</g>
<g>
</g>
<g>
</g>
<g>
</g>
<g>
</g>
<g>
</g>
<g>
</g>
<g>
</g>
<g>
</g>
</svg>
